<svg width="534" height="24" viewBox="0 0 534 24" fill="none" xmlns="http://www.w3.org/2000/svg">
<path d="M9.78906 17H8.17969L2.89844 11.2109V17H1.57031V5.57812H2.89844V11.1094L8.04688 5.57812H9.57031L4.51562 11.125L9.78906 17ZM16.4375 17L16.1797 15.7812H16.1172C15.6901 16.3177 15.263 16.6823 14.8359 16.875C14.4141 17.0625 13.8854 17.1562 13.25 17.1562C12.401 17.1562 11.7344 16.9375 11.25 16.5C10.7708 16.0625 10.5312 15.4401 10.5312 14.6328C10.5312 12.9036 11.9141 11.9974 14.6797 11.9141L16.1328 11.8672V11.3359C16.1328 10.6641 15.987 10.1693 15.6953 9.85156C15.4089 9.52865 14.9479 9.36719 14.3125 9.36719C13.599 9.36719 12.7917 9.58594 11.8906 10.0234L11.4922 9.03125C11.9141 8.80208 12.375 8.6224 12.875 8.49219C13.3802 8.36198 13.8854 8.29688 14.3906 8.29688C15.4115 8.29688 16.1667 8.52344 16.6562 8.97656C17.151 9.42969 17.3984 10.1562 17.3984 11.1562V17H16.4375ZM13.5078 16.0859C14.3151 16.0859 14.9479 15.8646 15.4062 15.4219C15.8698 14.9792 16.1016 14.3594 16.1016 13.5625V12.7891L14.8047 12.8438C13.7734 12.8802 13.0286 13.0417 12.5703 13.3281C12.1172 13.6094 11.8906 14.0495 11.8906 14.6484C11.8906 15.1172 12.0312 15.474 12.3125 15.7188C12.599 15.9635 12.9974 16.0859 13.5078 16.0859ZM25.8516 9.54688H23.0703V17H21.7734V9.54688H19.0234V8.4375H25.8516V9.54688ZM32.8125 17L32.5547 15.7812H32.4922C32.0651 16.3177 31.638 16.6823 31.2109 16.875C30.7891 17.0625 30.2604 17.1562 29.625 17.1562C28.776 17.1562 28.1094 16.9375 27.625 16.5C27.1458 16.0625 26.9062 15.4401 26.9062 14.6328C26.9062 12.9036 28.2891 11.9974 31.0547 11.9141L32.5078 11.8672V11.3359C32.5078 10.6641 32.362 10.1693 32.0703 9.85156C31.7839 9.52865 31.3229 9.36719 30.6875 9.36719C29.974 9.36719 29.1667 9.58594 28.2656 10.0234L27.8672 9.03125C28.2891 8.80208 28.75 8.6224 29.25 8.49219C29.7552 8.36198 30.2604 8.29688 30.7656 8.29688C31.7865 8.29688 32.5417 8.52344 33.0312 8.97656C33.526 9.42969 33.7734 10.1562 33.7734 11.1562V17H32.8125ZM29.8828 16.0859C30.6901 16.0859 31.3229 15.8646 31.7812 15.4219C32.2448 14.9792 32.4766 14.3594 32.4766 13.5625V12.7891L31.1797 12.8438C30.1484 12.8802 29.4036 13.0417 28.9453 13.3281C28.4922 13.6094 28.2656 14.0495 28.2656 14.6484C28.2656 15.1172 28.4062 15.474 28.6875 15.7188C28.974 15.9635 29.3724 16.0859 29.8828 16.0859ZM42.8359 17H41.5234V9.54688H38.9531C38.8125 11.401 38.6172 12.8724 38.3672 13.9609C38.1172 15.0495 37.7917 15.8464 37.3906 16.3516C36.9948 16.8568 36.4896 17.1094 35.875 17.1094C35.5938 17.1094 35.3698 17.0781 35.2031 17.0156V16.0547C35.3177 16.0859 35.4479 16.1016 35.5938 16.1016C36.1927 16.1016 36.6693 15.4688 37.0234 14.2031C37.3776 12.9375 37.6458 11.0156 37.8281 8.4375H42.8359V17ZM52.9844 12.7109C52.9844 14.1068 52.6328 15.1979 51.9297 15.9844C51.2266 16.7656 50.2552 17.1562 49.0156 17.1562C48.25 17.1562 47.5703 16.9766 46.9766 16.6172C46.3828 16.2578 45.9245 15.7422 45.6016 15.0703C45.2786 14.3984 45.1172 13.612 45.1172 12.7109C45.1172 11.3151 45.4661 10.2292 46.1641 9.45312C46.862 8.67188 47.8307 8.28125 49.0703 8.28125C50.2682 8.28125 51.2188 8.67969 51.9219 9.47656C52.6302 10.2734 52.9844 11.3516 52.9844 12.7109ZM46.4609 12.7109C46.4609 13.8047 46.6797 14.638 47.1172 15.2109C47.5547 15.7839 48.1979 16.0703 49.0469 16.0703C49.8958 16.0703 50.5391 15.7865 50.9766 15.2188C51.4193 14.6458 51.6406 13.8099 51.6406 12.7109C51.6406 11.6224 51.4193 10.7969 50.9766 10.2344C50.5391 9.66667 49.8906 9.38281 49.0312 9.38281C48.1823 9.38281 47.5417 9.66146 47.1094 10.2188C46.6771 10.776 46.4609 11.6068 46.4609 12.7109ZM60.4219 9.54688H56.5625V17H55.2656V8.4375H60.4219V9.54688Z" fill="white"/>
<path d="M129.258 5.57812V6.77344H124.219V17H122.891V5.57812H129.258ZM136.29 17L136.032 15.7812H135.969C135.542 16.3177 135.115 16.6823 134.688 16.875C134.266 17.0625 133.737 17.1562 133.102 17.1562C132.253 17.1562 131.586 16.9375 131.102 16.5C130.623 16.0625 130.383 15.4401 130.383 14.6328C130.383 12.9036 131.766 11.9974 134.532 11.9141L135.985 11.8672V11.3359C135.985 10.6641 135.839 10.1693 135.547 9.85156C135.261 9.52865 134.8 9.36719 134.165 9.36719C133.451 9.36719 132.644 9.58594 131.743 10.0234L131.344 9.03125C131.766 8.80208 132.227 8.6224 132.727 8.49219C133.232 8.36198 133.737 8.29688 134.243 8.29688C135.264 8.29688 136.019 8.52344 136.508 8.97656C137.003 9.42969 137.25 10.1562 137.25 11.1562V17H136.29ZM133.36 16.0859C134.167 16.0859 134.8 15.8646 135.258 15.4219C135.722 14.9792 135.954 14.3594 135.954 13.5625V12.7891L134.657 12.8438C133.625 12.8802 132.881 13.0417 132.422 13.3281C131.969 13.6094 131.743 14.0495 131.743 14.6484C131.743 15.1172 131.883 15.474 132.165 15.7188C132.451 15.9635 132.849 16.0859 133.36 16.0859ZM146.313 17H145V9.54688H142.43C142.29 11.401 142.094 12.8724 141.844 13.9609C141.594 15.0495 141.269 15.8464 140.868 16.3516C140.472 16.8568 139.967 17.1094 139.352 17.1094C139.071 17.1094 138.847 17.0781 138.68 17.0156V16.0547C138.795 16.0859 138.925 16.1016 139.071 16.1016C139.67 16.1016 140.146 15.4688 140.5 14.2031C140.855 12.9375 141.123 11.0156 141.305 8.4375H146.313V17ZM152.688 17.1562C151.422 17.1562 150.422 16.7708 149.688 16C148.959 15.2292 148.594 14.1589 148.594 12.7891C148.594 11.4089 148.933 10.3125 149.61 9.5C150.292 8.6875 151.206 8.28125 152.352 8.28125C153.425 8.28125 154.274 8.63542 154.899 9.34375C155.524 10.0469 155.836 10.9766 155.836 12.1328V12.9531H149.938C149.964 13.9583 150.217 14.7214 150.696 15.2422C151.18 15.763 151.86 16.0234 152.735 16.0234C153.657 16.0234 154.568 15.8307 155.469 15.4453V16.6016C155.011 16.7995 154.576 16.9401 154.165 17.0234C153.758 17.112 153.266 17.1562 152.688 17.1562ZM152.336 9.36719C151.649 9.36719 151.099 9.59115 150.688 10.0391C150.282 10.487 150.042 11.1068 149.969 11.8984H154.446C154.446 11.0807 154.264 10.4557 153.899 10.0234C153.534 9.58594 153.014 9.36719 152.336 9.36719ZM162.04 17.1562C161.482 17.1562 160.972 17.0547 160.508 16.8516C160.05 16.6432 159.665 16.3255 159.352 15.8984H159.258C159.321 16.3984 159.352 16.8724 159.352 17.3203V20.8438H158.055V8.4375H159.11L159.29 9.60938H159.352C159.685 9.14062 160.073 8.80208 160.516 8.59375C160.959 8.38542 161.467 8.28125 162.04 8.28125C163.175 8.28125 164.05 8.66927 164.665 9.44531C165.284 10.2214 165.594 11.3099 165.594 12.7109C165.594 14.1172 165.279 15.2109 164.649 15.9922C164.024 16.7682 163.154 17.1562 162.04 17.1562ZM161.852 9.38281C160.977 9.38281 160.344 9.625 159.954 10.1094C159.563 10.5938 159.362 11.3646 159.352 12.4219V12.7109C159.352 13.9141 159.553 14.776 159.954 15.2969C160.355 15.8125 160.998 16.0703 161.883 16.0703C162.623 16.0703 163.201 15.7708 163.618 15.1719C164.04 14.5729 164.25 13.7474 164.25 12.6953C164.25 11.6276 164.04 10.8099 163.618 10.2422C163.201 9.66927 162.612 9.38281 161.852 9.38281ZM171.485 17.1562C170.219 17.1562 169.219 16.7708 168.485 16C167.756 15.2292 167.391 14.1589 167.391 12.7891C167.391 11.4089 167.73 10.3125 168.407 9.5C169.089 8.6875 170.003 8.28125 171.149 8.28125C172.222 8.28125 173.071 8.63542 173.696 9.34375C174.321 10.0469 174.633 10.9766 174.633 12.1328V12.9531H168.735C168.761 13.9583 169.014 14.7214 169.493 15.2422C169.977 15.763 170.657 16.0234 171.532 16.0234C172.454 16.0234 173.365 15.8307 174.266 15.4453V16.6016C173.808 16.7995 173.373 16.9401 172.961 17.0234C172.555 17.112 172.063 17.1562 171.485 17.1562ZM171.133 9.36719C170.446 9.36719 169.896 9.59115 169.485 10.0391C169.079 10.487 168.839 11.1068 168.766 11.8984H173.243C173.243 11.0807 173.06 10.4557 172.696 10.0234C172.331 9.58594 171.81 9.36719 171.133 9.36719ZM177.282 17H175.766L178.227 13.3828C177.566 13.237 177.058 12.9557 176.704 12.5391C176.355 12.1172 176.18 11.5885 176.18 10.9531C176.18 10.1719 176.443 9.55729 176.969 9.10938C177.495 8.66146 178.23 8.4375 179.172 8.4375H182.985V17H181.688V13.5781H179.524L177.282 17ZM177.446 10.9688C177.446 11.9583 178.165 12.4531 179.602 12.4531H181.688V9.5625H179.336C178.076 9.5625 177.446 10.0312 177.446 10.9688Z" fill="white"/>
<path d="M266.484 11.2734C266.484 13.1016 266.021 14.5391 265.094 15.5859C264.172 16.6328 262.888 17.1562 261.242 17.1562C259.56 17.1562 258.26 16.6432 257.344 15.6172C256.432 14.5859 255.977 13.1328 255.977 11.2578C255.977 9.39844 256.435 7.95833 257.352 6.9375C258.268 5.91146 259.57 5.39844 261.258 5.39844C262.898 5.39844 264.18 5.91927 265.102 6.96094C266.023 8.0026 266.484 9.4401 266.484 11.2734ZM257.383 11.2734C257.383 12.8203 257.711 13.9948 258.367 14.7969C259.029 15.5938 259.987 15.9922 261.242 15.9922C262.508 15.9922 263.464 15.5938 264.109 14.7969C264.755 14 265.078 12.8255 265.078 11.2734C265.078 9.73698 264.755 8.57292 264.109 7.78125C263.469 6.98438 262.518 6.58594 261.258 6.58594C259.992 6.58594 259.029 6.98698 258.367 7.78906C257.711 8.58594 257.383 9.7474 257.383 11.2734ZM279.383 17H278.07V9.54688H275.5C275.359 11.401 275.164 12.8724 274.914 13.9609C274.664 15.0495 274.339 15.8464 273.938 16.3516C273.542 16.8568 273.036 17.1094 272.422 17.1094C272.141 17.1094 271.917 17.0781 271.75 17.0156V16.0547C271.865 16.0859 271.995 16.1016 272.141 16.1016C272.74 16.1016 273.216 15.4688 273.57 14.2031C273.924 12.9375 274.193 11.0156 274.375 8.4375H279.383V17ZM287.406 17L287.148 15.7812H287.086C286.659 16.3177 286.232 16.6823 285.805 16.875C285.383 17.0625 284.854 17.1562 284.219 17.1562C283.37 17.1562 282.703 16.9375 282.219 16.5C281.74 16.0625 281.5 15.4401 281.5 14.6328C281.5 12.9036 282.883 11.9974 285.648 11.9141L287.102 11.8672V11.3359C287.102 10.6641 286.956 10.1693 286.664 9.85156C286.378 9.52865 285.917 9.36719 285.281 9.36719C284.568 9.36719 283.76 9.58594 282.859 10.0234L282.461 9.03125C282.883 8.80208 283.344 8.6224 283.844 8.49219C284.349 8.36198 284.854 8.29688 285.359 8.29688C286.38 8.29688 287.135 8.52344 287.625 8.97656C288.12 9.42969 288.367 10.1562 288.367 11.1562V17H287.406ZM284.477 16.0859C285.284 16.0859 285.917 15.8646 286.375 15.4219C286.839 14.9792 287.07 14.3594 287.07 13.5625V12.7891L285.773 12.8438C284.742 12.8802 283.997 13.0417 283.539 13.3281C283.086 13.6094 282.859 14.0495 282.859 14.6484C282.859 15.1172 283 15.474 283.281 15.7188C283.568 15.9635 283.966 16.0859 284.477 16.0859ZM290.602 11.8672C290.602 9.99219 290.878 8.53125 291.43 7.48438C291.982 6.43229 292.857 5.77604 294.055 5.51562C295.544 5.19792 296.857 4.9401 297.992 4.74219L298.234 5.88281C296.427 6.1849 295.135 6.42448 294.359 6.60156C293.604 6.77344 293.036 7.17969 292.656 7.82031C292.281 8.46094 292.076 9.33333 292.039 10.4375H292.133C292.456 10 292.872 9.65625 293.383 9.40625C293.893 9.15625 294.427 9.03125 294.984 9.03125C296.036 9.03125 296.857 9.3724 297.445 10.0547C298.034 10.737 298.328 11.6823 298.328 12.8906C298.328 14.2292 297.987 15.276 297.305 16.0312C296.622 16.7812 295.672 17.1562 294.453 17.1562C293.25 17.1562 292.307 16.6953 291.625 15.7734C290.943 14.8516 290.602 13.5495 290.602 11.8672ZM294.57 16.0703C296.159 16.0703 296.953 15.0573 296.953 13.0312C296.953 11.099 296.232 10.1328 294.789 10.1328C294.393 10.1328 294.01 10.2161 293.641 10.3828C293.276 10.5443 292.94 10.7604 292.633 11.0312C292.331 11.3021 292.096 11.5807 291.93 11.8672C291.93 13.237 292.146 14.2812 292.578 15C293.01 15.7135 293.674 16.0703 294.57 16.0703ZM307.984 12.7109C307.984 14.1068 307.633 15.1979 306.93 15.9844C306.227 16.7656 305.255 17.1562 304.016 17.1562C303.25 17.1562 302.57 16.9766 301.977 16.6172C301.383 16.2578 300.924 15.7422 300.602 15.0703C300.279 14.3984 300.117 13.612 300.117 12.7109C300.117 11.3151 300.466 10.2292 301.164 9.45312C301.862 8.67188 302.831 8.28125 304.07 8.28125C305.268 8.28125 306.219 8.67969 306.922 9.47656C307.63 10.2734 307.984 11.3516 307.984 12.7109ZM301.461 12.7109C301.461 13.8047 301.68 14.638 302.117 15.2109C302.555 15.7839 303.198 16.0703 304.047 16.0703C304.896 16.0703 305.539 15.7865 305.977 15.2188C306.419 14.6458 306.641 13.8099 306.641 12.7109C306.641 11.6224 306.419 10.7969 305.977 10.2344C305.539 9.66667 304.891 9.38281 304.031 9.38281C303.182 9.38281 302.542 9.66146 302.109 10.2188C301.677 10.776 301.461 11.6068 301.461 12.7109ZM314.25 17.1562C313.693 17.1562 313.182 17.0547 312.719 16.8516C312.26 16.6432 311.875 16.3255 311.562 15.8984H311.469C311.531 16.3984 311.562 16.8724 311.562 17.3203V20.8438H310.266V8.4375H311.32L311.5 9.60938H311.562C311.896 9.14062 312.284 8.80208 312.727 8.59375C313.169 8.38542 313.677 8.28125 314.25 8.28125C315.385 8.28125 316.26 8.66927 316.875 9.44531C317.495 10.2214 317.805 11.3099 317.805 12.7109C317.805 14.1172 317.49 15.2109 316.859 15.9922C316.234 16.7682 315.365 17.1562 314.25 17.1562ZM314.062 9.38281C313.188 9.38281 312.555 9.625 312.164 10.1094C311.773 10.5938 311.573 11.3646 311.562 12.4219V12.7109C311.562 13.9141 311.763 14.776 312.164 15.2969C312.565 15.8125 313.208 16.0703 314.094 16.0703C314.833 16.0703 315.411 15.7708 315.828 15.1719C316.25 14.5729 316.461 13.7474 316.461 12.6953C316.461 11.6276 316.25 10.8099 315.828 10.2422C315.411 9.66927 314.823 9.38281 314.062 9.38281ZM325.344 17L325.086 15.7812H325.023C324.596 16.3177 324.169 16.6823 323.742 16.875C323.32 17.0625 322.792 17.1562 322.156 17.1562C321.307 17.1562 320.641 16.9375 320.156 16.5C319.677 16.0625 319.438 15.4401 319.438 14.6328C319.438 12.9036 320.82 11.9974 323.586 11.9141L325.039 11.8672V11.3359C325.039 10.6641 324.893 10.1693 324.602 9.85156C324.315 9.52865 323.854 9.36719 323.219 9.36719C322.505 9.36719 321.698 9.58594 320.797 10.0234L320.398 9.03125C320.82 8.80208 321.281 8.6224 321.781 8.49219C322.286 8.36198 322.792 8.29688 323.297 8.29688C324.318 8.29688 325.073 8.52344 325.562 8.97656C326.057 9.42969 326.305 10.1562 326.305 11.1562V17H325.344ZM322.414 16.0859C323.221 16.0859 323.854 15.8646 324.312 15.4219C324.776 14.9792 325.008 14.3594 325.008 13.5625V12.7891L323.711 12.8438C322.68 12.8802 321.935 13.0417 321.477 13.3281C321.023 13.6094 320.797 14.0495 320.797 14.6484C320.797 15.1172 320.938 15.474 321.219 15.7188C321.505 15.9635 321.904 16.0859 322.414 16.0859ZM334.758 9.54688H331.977V17H330.68V9.54688H327.93V8.4375H334.758V9.54688ZM343.844 12.7109C343.844 14.1068 343.492 15.1979 342.789 15.9844C342.086 16.7656 341.115 17.1562 339.875 17.1562C339.109 17.1562 338.43 16.9766 337.836 16.6172C337.242 16.2578 336.784 15.7422 336.461 15.0703C336.138 14.3984 335.977 13.612 335.977 12.7109C335.977 11.3151 336.326 10.2292 337.023 9.45312C337.721 8.67188 338.69 8.28125 339.93 8.28125C341.128 8.28125 342.078 8.67969 342.781 9.47656C343.49 10.2734 343.844 11.3516 343.844 12.7109ZM337.32 12.7109C337.32 13.8047 337.539 14.638 337.977 15.2109C338.414 15.7839 339.057 16.0703 339.906 16.0703C340.755 16.0703 341.398 15.7865 341.836 15.2188C342.279 14.6458 342.5 13.8099 342.5 12.7109C342.5 11.6224 342.279 10.7969 341.836 10.2344C341.398 9.66667 340.75 9.38281 339.891 9.38281C339.042 9.38281 338.401 9.66146 337.969 10.2188C337.536 10.776 337.32 11.6068 337.32 12.7109ZM350.109 17.1562C349.552 17.1562 349.042 17.0547 348.578 16.8516C348.12 16.6432 347.734 16.3255 347.422 15.8984H347.328C347.391 16.3984 347.422 16.8724 347.422 17.3203V20.8438H346.125V8.4375H347.18L347.359 9.60938H347.422C347.755 9.14062 348.143 8.80208 348.586 8.59375C349.029 8.38542 349.536 8.28125 350.109 8.28125C351.245 8.28125 352.12 8.66927 352.734 9.44531C353.354 10.2214 353.664 11.3099 353.664 12.7109C353.664 14.1172 353.349 15.2109 352.719 15.9922C352.094 16.7682 351.224 17.1562 350.109 17.1562ZM349.922 9.38281C349.047 9.38281 348.414 9.625 348.023 10.1094C347.633 10.5938 347.432 11.3646 347.422 12.4219V12.7109C347.422 13.9141 347.622 14.776 348.023 15.2969C348.424 15.8125 349.068 16.0703 349.953 16.0703C350.693 16.0703 351.271 15.7708 351.688 15.1719C352.109 14.5729 352.32 13.7474 352.32 12.6953C352.32 11.6276 352.109 10.8099 351.688 10.2422C351.271 9.66927 350.682 9.38281 349.922 9.38281ZM357.156 8.4375V13.8672L357.102 15.2891L357.078 15.7344L361.711 8.4375H363.328V17H362.117V11.7656L362.141 10.7344L362.18 9.71875L357.555 17H355.938V8.4375H357.156ZM367.297 8.4375V13.8672L367.242 15.2891L367.219 15.7344L371.852 8.4375H373.469V17H372.258V11.7656L372.281 10.7344L372.32 9.71875L367.695 17H366.078V8.4375H367.297Z" fill="white"/>
<path d="M453.069 17H451.459L446.178 11.2109V17H444.85V5.57812H446.178V11.1094L451.326 5.57812H452.85L447.795 11.125L453.069 17ZM461.842 12.7109C461.842 14.1068 461.49 15.1979 460.787 15.9844C460.084 16.7656 459.113 17.1562 457.873 17.1562C457.108 17.1562 456.428 16.9766 455.834 16.6172C455.24 16.2578 454.782 15.7422 454.459 15.0703C454.136 14.3984 453.975 13.612 453.975 12.7109C453.975 11.3151 454.324 10.2292 455.022 9.45312C455.72 8.67188 456.688 8.28125 457.928 8.28125C459.126 8.28125 460.076 8.67969 460.78 9.47656C461.488 10.2734 461.842 11.3516 461.842 12.7109ZM455.319 12.7109C455.319 13.8047 455.537 14.638 455.975 15.2109C456.412 15.7839 457.056 16.0703 457.905 16.0703C458.753 16.0703 459.397 15.7865 459.834 15.2188C460.277 14.6458 460.498 13.8099 460.498 12.7109C460.498 11.6224 460.277 10.7969 459.834 10.2344C459.397 9.66667 458.748 9.38281 457.889 9.38281C457.04 9.38281 456.399 9.66146 455.967 10.2188C455.535 10.776 455.319 11.6068 455.319 12.7109ZM465.42 8.4375V12.0234H470.217V8.4375H471.514V17H470.217V13.1406H465.42V17H464.123V8.4375H465.42ZM480.037 9.54688H477.256V17H475.959V9.54688H473.209V8.4375H480.037V9.54688ZM486.998 17L486.74 15.7812H486.678C486.251 16.3177 485.824 16.6823 485.397 16.875C484.975 17.0625 484.446 17.1562 483.811 17.1562C482.962 17.1562 482.295 16.9375 481.811 16.5C481.332 16.0625 481.092 15.4401 481.092 14.6328C481.092 12.9036 482.475 11.9974 485.24 11.9141L486.694 11.8672V11.3359C486.694 10.6641 486.548 10.1693 486.256 9.85156C485.97 9.52865 485.509 9.36719 484.873 9.36719C484.16 9.36719 483.352 9.58594 482.451 10.0234L482.053 9.03125C482.475 8.80208 482.936 8.6224 483.436 8.49219C483.941 8.36198 484.446 8.29688 484.951 8.29688C485.972 8.29688 486.727 8.52344 487.217 8.97656C487.712 9.42969 487.959 10.1562 487.959 11.1562V17H486.998ZM484.069 16.0859C484.876 16.0859 485.509 15.8646 485.967 15.4219C486.431 14.9792 486.662 14.3594 486.662 13.5625V12.7891L485.365 12.8438C484.334 12.8802 483.589 13.0417 483.131 13.3281C482.678 13.6094 482.451 14.0495 482.451 14.6484C482.451 15.1172 482.592 15.474 482.873 15.7188C483.16 15.9635 483.558 16.0859 484.069 16.0859ZM495.631 8.4375H497.053L493.358 12.5703L497.358 17H495.842L491.936 12.6641V17H490.639V8.4375H491.936V12.6016L495.631 8.4375ZM504.725 9.54688H501.944V17H500.647V9.54688H497.897V8.4375H504.725V9.54688ZM507.717 11.9766H510.053C511.142 11.9766 511.946 12.1797 512.467 12.5859C512.993 12.987 513.256 13.5885 513.256 14.3906C513.256 15.25 512.977 15.901 512.42 16.3438C511.868 16.7812 511.053 17 509.975 17H506.42V8.4375H507.717V11.9766ZM515.99 17H514.694V8.4375H515.99V17ZM507.717 13.0938V15.9141H509.912C511.287 15.9141 511.975 15.4323 511.975 14.4688C511.975 13.9896 511.816 13.6406 511.498 13.4219C511.181 13.2031 510.639 13.0938 509.873 13.0938H507.717Z" fill="white"/>
</svg>
